<?xml version="1.0" encoding="utf-8"?>
<!-- Generator: Adobe Illustrator 16.0.2, SVG Export Plug-In . SVG Version: 6.00 Build 0)  -->
<!DOCTYPE svg PUBLIC "-//W3C//DTD SVG 1.1//EN" "http://www.w3.org/Graphics/SVG/1.1/DTD/svg11.dtd">
<svg version="1.1" id="Layer_1" xmlns="http://www.w3.org/2000/svg" xmlns:xlink="http://www.w3.org/1999/xlink" x="0px" y="0px"
	 width="841.89px" height="401px" viewBox="0 0 841.89 401" enable-background="new 0 0 841.89 401" xml:space="preserve">
<path fill-rule="evenodd" clip-rule="evenodd" fill="#15625B" d="M218.555,168.172c9.276,6.354,18.31,11.279,25.75,17.976
	c8.274,7.445,16.313,15.725,22.292,25.033c11.12,17.31,3.46,32.182-17.132,34.526c-18.615,2.124-37.079,0.525-53.719-8.736
	c-20.588-11.462-41.106-23.192-60.699-36.242c-11.711-7.8-21.42-18.499-28.909-30.657c0.204-1.024,0.408-2.049,0.613-3.074
	c13.795-0.73,27.643-2.597,41.377-1.973c37.745,1.716,70.779,15.014,96.44,43.591c4.11,4.579,5.965,11.183,8.863,16.849
	c-6.282,1.892-12.621,5.528-18.833,5.324c-14.979-0.494-29.896-2.788-45.019-4.376c2.484,1.455,5.14,3.553,8.157,4.697
	c18.386,6.96,37.333,9.11,56.554,4.562c8.332-1.973,11.544-8.489,6.96-15.826c-5.869-9.395-12.666-18.85-21.076-25.869
	c-12.103-10.102-26.018-18.036-39.064-26.828c7.895-4.121,16.576-8.094,24.693-13.001c16.5-9.973,30.086-22.975,39.249-40.22
	c9.007-16.955,3.523-26.587-15.622-26.722c-39.357-0.277-72.416,16.335-102.485,39.744c-10.546,8.21-19.395,18.584-29.204,27.771
	c-2.556,2.392-5.809,4.039-8.742,6.027c-0.656-0.633-1.313-1.264-1.968-1.896c1.582-2.631,2.883-5.487,4.788-7.861
	c32.938-41.042,74.921-66.456,127.617-72.505c7.936-0.912,16.525,0.318,24.303,2.431c11.492,3.122,16.362,12.986,13.26,24.563
	c-6.692,24.974-24.3,41.17-44.869,54.83C228.045,163.022,223.638,165.247,218.555,168.172z"/>
<path fill-rule="evenodd" clip-rule="evenodd" fill="#15625B" d="M645.818,207.825c17.384,4.95,25.968,18.825,36.007,31.052
	c7.492,9.13,14.882,18.349,22.197,27.618c16.827,21.318,39.208,31.054,65.927,31.836c2.747,0.081,5.506-0.077,8.241,0.136
	c5.736,0.445,9.33,3.459,9.401,9.378c0.07,5.992-3.493,9.02-9.3,9.335c-32.458,1.769-61.024-7.117-83.042-31.967
	c-13.291-14.995-25.552-30.904-38.386-46.308c-2.619-3.143-5.442-6.257-8.675-8.724c-14.267-10.877-32.204-3.703-34.627,14.092
	c-1.029,7.564-0.434,15.352-0.578,23.037c-0.171,8.85-3.625,13.812-9.835,13.396c-7.787-0.521-9.861-6.035-9.869-12.708
	c-0.046-54.409-0.063-108.816-0.008-163.224c0.006-6.072,1.376-11.787,8.342-13.49c6.45-1.576,11.301,3.748,11.325,12.483
	c0.087,31.875,0.045,63.75,0.051,95.628c0.002,2.893,0.002,5.786,0.002,11.25c11.918-11.111,21.882-20.351,31.791-29.648
	c10.617-9.964,21.15-20.018,31.779-29.971c7.16-6.707,12.522-7.549,17.045-2.86c4.847,5.021,3.724,10.354-3.843,17.483
	c-12.998,12.243-26.063,24.417-39.061,36.662C649.188,203.739,647.924,205.432,645.818,207.825z"/>
<path fill-rule="evenodd" clip-rule="evenodd" fill="#15625B" d="M543.731,200.757c-0.759-20.631-23.727-40.565-47.713-38.051
	c-23.276,2.439-39.618,17.417-44.475,40.047c-4.141,19.297,5.796,42.091,22.632,51.911c19.431,11.332,42.856,9.236,59.905-5.384
	c1.667-1.429,3.17-3.051,4.851-4.466c4.626-3.884,9.756-4.665,13.966-0.054c4.107,4.5,3.11,9.571-0.849,14.084
	c-18.244,20.8-52.811,28.39-78.838,17.284c-33.326-14.22-49.685-52.042-37.722-87.22c11.556-33.977,47.054-52.846,81.957-43.567
	c26.893,7.15,47.97,35.641,47.115,63.685c-0.259,8.471-3.646,12.071-12.143,12.095c-26.109,0.074-52.223-0.021-78.334-0.065
	c-6.524-0.011-11.756-2.103-11.61-9.645c0.14-7.285,5.146-9.759,11.734-9.781c20.615-0.074,41.229-0.097,61.843-0.199
	C538.465,201.418,540.875,201.018,543.731,200.757z"/>
<path fill-rule="evenodd" clip-rule="evenodd" fill="#15625B" d="M706.203,216.383c-0.891-35.53,28.747-67.022,63.778-67.768
	c36.416-0.774,67.163,28.584,68.249,65.165c1.05,35.328-28.464,65.958-64.442,66.882
	C737.184,281.603,707.12,253.011,706.203,216.383z M771.193,260.913c26.122,0.175,47.366-20.162,47.68-45.643
	c0.31-25.237-21.073-46.5-46.86-46.596c-25.614-0.096-46.864,21.079-46.826,46.655C725.227,240.139,746.024,260.743,771.193,260.913
	z"/>
<path fill-rule="evenodd" clip-rule="evenodd" fill="#15625B" d="M396.751,191.252c-0.002,25.554,0.022,51.106-0.016,76.66
	c-0.012,8.684-3.511,13.527-9.646,13.641c-6.115,0.114-9.896-4.737-9.909-13.482c-0.077-50.834-0.049-101.664-0.063-152.494
	c-0.003-11.438-0.017-11.44-11.207-11.457c-14.288-0.023-28.575-0.125-42.863-0.024c-6.65,0.047-11.454-2.147-12.063-9.395
	c-0.533-6.327,3.975-10.392,11.958-10.411c44.511-0.107,89.023-0.052,133.535-0.039c6.569,0.001,11.442,2.306,11.716,9.724
	c0.229,6.193-4.365,9.965-12.359,10.033c-17.035,0.147-34.072,0.285-51.103,0c-6.12-0.103-8.128,2.071-8.075,8.114
	C396.884,138.497,396.753,164.875,396.751,191.252z"/>
<path fill-rule="evenodd" clip-rule="evenodd" fill="#15625B" d="M127.12,154.747c13.061-14.737,28.637-26.708,45.701-36.736
	c21.025-12.354,43.434-21.211,67.971-22.912c6.386-0.443,12.979,2.125,19.478,3.311c-2.015,6.269-2.739,13.407-6.271,18.656
	c-15.644,23.243-37.876,37.588-64.709,45.031c-1.57,0.435-3.287,0.954-4.841,0.742C165.582,160.253,146.736,157.537,127.12,154.747z
	"/>
<path fill-rule="evenodd" clip-rule="evenodd" fill="#15625B" d="M188.431,244.371c-40.762,9.733-44.392,12.558-67.389,52.025
	c-7.609-9.198-14.981-17.777-21.852-26.74c-1.157-1.51-0.66-4.817-0.058-7.063c5.606-20.907,18.475-35.773,38.172-44.574
	c2.104-0.94,5.438-0.814,7.539,0.196c12.315,5.924,24.516,12.102,36.55,18.578C183.856,238.118,185.445,241.069,188.431,244.371z"/>
<path fill-rule="evenodd" clip-rule="evenodd" fill="#15625B" d="M39.992,165.399c-33.404-1.924-39.933-15.958-26.981-41.081
	c6.762-13.116,17.769-20.926,33.104-20.581c12.792,0.288,21.576,7.141,27.063,18.425c4.44,9.132,3.19,11.778-4.724,18.163
	c-5.668,4.573-11.626,9.815-14.879,16.092C49.656,163.977,44.646,166.116,39.992,165.399z M32.582,141.547
	c1.354,0.024,2.707,0.049,4.06,0.073c2.302-3.317,5.985-6.406,6.58-10.006c0.882-5.346-3.522-9.417-8.479-8.504
	c-3.293,0.606-7.83,5.07-8.162,8.194C26.245,134.471,30.396,138.113,32.582,141.547z"/>
<path fill-rule="evenodd" clip-rule="evenodd" fill="#15625B" d="M132.466,211.296c-19.885,9.614-33.497,25.292-41.06,48.771
	c-9.666-14.997-18.594-28.171-22.213-43.59c-2.821-12.021,13.668-38.007,25.406-42.542c1.451-0.56,4.301,0.168,5.38,1.337
	C110.708,186.892,121.202,198.731,132.466,211.296z"/>
<path fill-rule="evenodd" clip-rule="evenodd" fill="#15625B" d="M200.938,278.96c-25.199,3.727-42.253,15.759-51.036,39.896
	c-6.617-4.873-12.738-8.916-18.202-13.71c-1.499-1.316-1.852-5.058-1.338-7.378c5.158-23.333,30.553-43.483,54.649-44.022
	c5.136-0.115,8.331,1.296,9.817,6.428C196.558,266.146,198.658,272.012,200.938,278.96z"/>
<path fill-rule="evenodd" clip-rule="evenodd" fill="#15625B" d="M178.389,365.077c-18.243-0.431-36.503-14.457-50.493-35.441
	c-2.582-3.872-5.118-7.911-6.744-12.226c-0.714-1.896,0.905-4.669,1.464-7.047c1.911,1.088,4.363,1.739,5.642,3.335
	c7.516,9.374,13.492,20.473,22.472,28.041c7.997,6.739,18.8,11.982,29.092,13.822c31.489,5.636,53.755-19.943,45.399-51.415
	c-2.202-8.291-7.103-15.934-11.254-23.607c-2.065-3.816-5.542-6.855-7.754-10.615c-0.842-1.433,0.065-3.895,0.176-5.888
	c1.969,0.18,4.467-0.354,5.826,0.649c16.413,12.146,27.449,45.298,21.891,65.035C227.657,352.609,210.97,365.02,178.389,365.077z"/>
<path fill-rule="evenodd" clip-rule="evenodd" fill="#F7C550" d="M186.959,336.954c-8.126-1.787-13.509-5.267-19.49-9.104
	c-7.917-5.076-9.647-12.121-3.238-18.688c7.266-7.449,10.603-9.187,19.451-14.903c1.636-1.055,8.343-5.759,13.914-1.961
	c8.128,6.721,11.865,24.022,7.789,33.517C202.498,332.543,203.083,336.001,186.959,336.954z"/>
<path fill-rule="evenodd" clip-rule="evenodd" fill="#15625B" d="M106.044,145.942c-5.594,10.175-12.036,18.12-20.766,25.307
	c-9.748,8.026-16.287,19.95-24.143,30.074c-10.436-9.479-9.767-33.227,2.896-47.485C76.317,140.005,95.339,136.382,106.044,145.942z
	"/>
<path fill-rule="evenodd" clip-rule="evenodd" fill="#15625B" d="M45.771,94.692c5.643-23.546,19.692-39.988,40.63-50.24
	c9.246-4.528,19.684-6.584,29.481-10.043c3.931-1.388,7.441-4.128,11.425-5.161c4.073-1.056,8.955-1.986,12.582-0.605
	c2.056,0.783,4.195,7.61,2.952,9.422c-2.199,3.207-7.185,6.876-10.595,6.513c-34.031-3.617-64.74,14.52-76.536,46.467
	C53.799,96.222,51.504,97.607,45.771,94.692z"/>
<path fill-rule="evenodd" clip-rule="evenodd" fill="#15625B" d="M23.306,100.956c0-11.849-1.013-23.287,0.224-34.478
	c2.169-19.641,10.578-36.701,24.733-50.794c2.066-2.058,2.787-5.858,5.091-7.196C56.76,6.51,61.327,4.631,64.82,5.386
	c2.263,0.489,5.399,6.257,4.731,8.746c-0.924,3.446-5.273,8.71-7.776,8.507c-9.5-0.768-13.312,5.66-17.201,11.673
	c-11.27,17.43-15.39,36.787-13.479,57.35C31.573,96.804,31.116,100.379,23.306,100.956z"/>
<path fill-rule="evenodd" clip-rule="evenodd" fill="#F7C550" d="M238.199,364.526c1.654,0.874,3.286,1.361,4.41,2.398
	c3.787,3.491,7.599,7.001,10.951,10.891c1.062,1.233,0.716,3.68,1.014,5.573c-1.957-0.34-4.453-0.037-5.771-1.142
	c-4.146-3.47-7.953-7.369-11.647-11.33c-0.942-1.01-1.254-2.854-1.302-4.333C235.836,365.967,237.266,365.304,238.199,364.526z"/>
<path fill-rule="evenodd" clip-rule="evenodd" fill="#F7C550" d="M214.162,376.171c0.559,7.194,1.171,13.423,1.277,19.659
	c0.009,0.502-4.341,2.11-5.196,1.41C206.717,394.352,208.631,380.193,214.162,376.171z"/>
<path fill-rule="evenodd" clip-rule="evenodd" fill="#F7C550" d="M258.11,336.699c3.637,1.761,6.704,3.247,9.772,4.733
	c-3.224,1.113-6.454,3.121-9.67,3.101c-3.527-0.023-7.043-1.915-10.563-2.993C250.952,340.012,254.254,338.484,258.11,336.699z"/>
<path fill-rule="evenodd" clip-rule="evenodd" fill="#754BA1" d="M771.58,197.896c9.741-0.098,17.407,7.414,17.314,16.965
	c-0.094,9.422-7.171,16.268-16.914,16.357c-9.948,0.094-17.061-6.466-17.261-15.917C754.512,205.439,761.721,197.993,771.58,197.896
	z"/>
</svg>
